<svg width="176" height="42" viewBox="0 0 176 42" fill="none" xmlns="http://www.w3.org/2000/svg">
<path opacity="0.5" d="M40.0652 2.25671L30.2601 36.9917C30.2102 37.1494 30.0108 37.1967 29.8945 37.0863L23.3301 30.8583L28.2492 13.4514C28.2991 13.2937 28.1495 13.1518 27.9833 13.1991L9.63617 17.8662L3.10498 11.6697C2.98865 11.5593 3.03851 11.3701 3.20469 11.3228L39.7993 2.00444C39.9655 1.97291 40.115 2.11481 40.0652 2.25671Z" fill="#00B37E"/>
<path opacity="0.5" d="M23.3297 30.858L20.8037 39.8452C20.7538 40.0029 20.5544 40.0502 20.4381 39.9398L0.0634003 20.6251C-0.0529313 20.5147 -0.00307518 20.3255 0.163113 20.2782L9.63583 17.8658L23.3297 30.858Z" fill="#00B37E"/>
<path d="M28.2484 13.4511L23.3292 30.858L9.63533 17.8659L27.9825 13.1988C28.1487 13.1515 28.2982 13.2934 28.2484 13.4511Z" fill="#00B37E"/>
<path d="M64.7733 23.0162H60.1384V20.0929H64.7733C65.4895 20.0929 66.0725 19.9763 66.5223 19.7431C66.972 19.5016 67.301 19.1684 67.5092 18.7437C67.7174 18.3189 67.8215 17.84 67.8215 17.307C67.8215 16.7656 67.7174 16.2618 67.5092 15.7954C67.301 15.329 66.972 14.9542 66.5223 14.671C66.0725 14.3878 65.4895 14.2462 64.7733 14.2462H61.4377V29.5H57.6898V11.3104H64.7733C66.1974 11.3104 67.4176 11.5686 68.4337 12.085C69.4581 12.593 70.241 13.2968 70.7823 14.1963C71.3237 15.0958 71.5943 16.1243 71.5943 17.282C71.5943 18.4563 71.3237 19.4724 70.7823 20.3303C70.241 21.1881 69.4581 21.8502 68.4337 22.3166C67.4176 22.783 66.1974 23.0162 64.7733 23.0162ZM88.5971 19.993V27.2013C88.3139 27.5428 87.8767 27.9134 87.2853 28.3132C86.694 28.7046 85.932 29.0419 84.9992 29.3251C84.0664 29.6083 82.9378 29.7499 81.6136 29.7499C80.4393 29.7499 79.3691 29.5583 78.4029 29.1752C77.4368 28.7837 76.604 28.2132 75.9044 27.4637C75.2131 26.7141 74.6801 25.798 74.3053 24.7152C73.9305 23.6242 73.7431 22.3791 73.7431 20.9799V19.843C73.7431 18.4438 73.9222 17.1987 74.2803 16.1077C74.6468 15.0166 75.1673 14.0963 75.8419 13.3468C76.5165 12.5972 77.3202 12.0267 78.253 11.6352C79.1858 11.2438 80.2227 11.0481 81.3637 11.0481C82.9462 11.0481 84.2454 11.3063 85.2615 11.8226C86.2776 12.3307 87.0521 13.0386 87.5852 13.9464C88.1265 14.8459 88.4597 15.8786 88.5846 17.0446H84.9492C84.8576 16.4283 84.6827 15.8911 84.4245 15.4331C84.1663 14.975 83.7957 14.6169 83.3126 14.3587C82.8379 14.1005 82.2216 13.9714 81.4637 13.9714C80.839 13.9714 80.281 14.1005 79.7896 14.3587C79.3066 14.6085 78.8985 14.9792 78.5653 15.4705C78.2322 15.9619 77.9782 16.5699 77.8033 17.2945C77.6284 18.0191 77.5409 18.8603 77.5409 19.8181V20.9799C77.5409 21.9293 77.6325 22.7705 77.8158 23.5034C77.999 24.228 78.2697 24.8402 78.6278 25.3399C78.9943 25.8313 79.444 26.2019 79.977 26.4517C80.5101 26.7016 81.1305 26.8265 81.8385 26.8265C82.4298 26.8265 82.9212 26.7766 83.3126 26.6766C83.7124 26.5767 84.033 26.4559 84.2746 26.3143C84.5244 26.1644 84.716 26.0228 84.8492 25.8896V22.6664H81.4262V19.993H88.5971ZM99.7032 11.3104H102.876L107.549 24.6653L112.221 11.3104H115.394L108.823 29.5H106.274L99.7032 11.3104ZM97.9917 11.3104H101.152L101.727 24.328V29.5H97.9917V11.3104ZM113.945 11.3104H117.118V29.5H113.37V24.328L113.945 11.3104ZM119.604 22.8788V22.6164C119.604 21.6253 119.746 20.7134 120.029 19.8805C120.312 19.0393 120.724 18.3106 121.266 17.6943C121.807 17.078 122.473 16.5991 123.265 16.2576C124.056 15.9078 124.964 15.7329 125.988 15.7329C127.013 15.7329 127.925 15.9078 128.724 16.2576C129.524 16.5991 130.194 17.078 130.735 17.6943C131.285 18.3106 131.702 19.0393 131.985 19.8805C132.268 20.7134 132.409 21.6253 132.409 22.6164V22.8788C132.409 23.8616 132.268 24.7735 131.985 25.6147C131.702 26.4476 131.285 27.1763 130.735 27.801C130.194 28.4173 129.528 28.8962 128.737 29.2377C127.945 29.5791 127.038 29.7499 126.013 29.7499C124.989 29.7499 124.077 29.5791 123.277 29.2377C122.486 28.8962 121.816 28.4173 121.266 27.801C120.724 27.1763 120.312 26.4476 120.029 25.6147C119.746 24.7735 119.604 23.8616 119.604 22.8788ZM123.202 22.6164V22.8788C123.202 23.4451 123.252 23.974 123.352 24.4654C123.452 24.9568 123.61 25.3899 123.827 25.7646C124.052 26.1311 124.343 26.4184 124.701 26.6266C125.06 26.8349 125.497 26.939 126.013 26.939C126.513 26.939 126.942 26.8349 127.3 26.6266C127.658 26.4184 127.945 26.1311 128.162 25.7646C128.378 25.3899 128.537 24.9568 128.637 24.4654C128.745 23.974 128.799 23.4451 128.799 22.8788V22.6164C128.799 22.0668 128.745 21.5504 128.637 21.0673C128.537 20.576 128.374 20.1429 128.149 19.7681C127.933 19.385 127.646 19.0851 127.287 18.8686C126.929 18.6521 126.496 18.5438 125.988 18.5438C125.48 18.5438 125.047 18.6521 124.689 18.8686C124.339 19.0851 124.052 19.385 123.827 19.7681C123.61 20.1429 123.452 20.576 123.352 21.0673C123.252 21.5504 123.202 22.0668 123.202 22.6164ZM138.144 18.8686V29.5H134.546V15.9828H137.919L138.144 18.8686ZM137.619 22.2666H136.645C136.645 21.2672 136.774 20.3677 137.032 19.5682C137.29 18.7603 137.652 18.0732 138.119 17.5069C138.585 16.9322 139.139 16.495 139.78 16.1951C140.43 15.887 141.154 15.7329 141.954 15.7329C142.587 15.7329 143.166 15.8245 143.69 16.0077C144.215 16.191 144.665 16.4825 145.04 16.8822C145.423 17.282 145.714 17.8109 145.914 18.4688C146.122 19.1268 146.227 19.9305 146.227 20.8799V29.5H142.604V20.8675C142.604 20.2678 142.52 19.8014 142.354 19.4683C142.187 19.1351 141.941 18.9019 141.617 18.7687C141.3 18.6271 140.909 18.5563 140.442 18.5563C139.959 18.5563 139.539 18.6521 139.181 18.8436C138.831 19.0352 138.539 19.3017 138.306 19.6432C138.081 19.9763 137.91 20.3677 137.794 20.8175C137.677 21.2672 137.619 21.7503 137.619 22.2666ZM155.184 29.7499C154.135 29.7499 153.193 29.5833 152.361 29.2501C151.528 28.9087 150.82 28.4381 150.237 27.8385C149.662 27.2388 149.221 26.5434 148.912 25.7521C148.604 24.9526 148.45 24.1031 148.45 23.2036V22.7039C148.45 21.6795 148.596 20.7425 148.888 19.893C149.179 19.0435 149.595 18.3064 150.137 17.6818C150.686 17.0571 151.353 16.5782 152.136 16.2451C152.919 15.9036 153.801 15.7329 154.784 15.7329C155.742 15.7329 156.591 15.8911 157.333 16.2076C158.074 16.5241 158.694 16.9739 159.194 17.5569C159.702 18.1398 160.085 18.8394 160.343 19.6556C160.602 20.4635 160.731 21.363 160.731 22.3541V23.8532H149.987V21.4546H157.195V21.1798C157.195 20.6801 157.104 20.2345 156.92 19.843C156.746 19.4433 156.479 19.1268 156.121 18.8936C155.763 18.6604 155.305 18.5438 154.747 18.5438C154.272 18.5438 153.864 18.6479 153.522 18.8561C153.181 19.0643 152.902 19.3558 152.685 19.7306C152.477 20.1054 152.319 20.5468 152.211 21.0548C152.111 21.5546 152.061 22.1042 152.061 22.7039V23.2036C152.061 23.745 152.136 24.2447 152.286 24.7028C152.444 25.1608 152.665 25.5564 152.948 25.8896C153.239 26.2227 153.589 26.4809 153.997 26.6641C154.414 26.8474 154.884 26.939 155.409 26.939C156.058 26.939 156.662 26.814 157.22 26.5642C157.787 26.306 158.274 25.9187 158.682 25.4024L160.431 27.3013C160.148 27.7094 159.76 28.1008 159.269 28.4756C158.786 28.8504 158.203 29.1585 157.52 29.4001C156.837 29.6333 156.058 29.7499 155.184 29.7499ZM166.615 27.9759L170.2 15.9828H174.061L168.626 31.5363C168.51 31.8778 168.351 32.2443 168.151 32.6357C167.96 33.0271 167.698 33.3978 167.364 33.7476C167.04 34.1057 166.627 34.3972 166.128 34.6221C165.636 34.8469 165.032 34.9594 164.316 34.9594C163.975 34.9594 163.696 34.9385 163.479 34.8969C163.263 34.8553 163.004 34.797 162.705 34.722V32.086C162.796 32.086 162.892 32.086 162.992 32.086C163.092 32.0943 163.188 32.0985 163.279 32.0985C163.754 32.0985 164.141 32.0444 164.441 31.9361C164.741 31.8278 164.982 31.6613 165.166 31.4364C165.349 31.2198 165.495 30.9367 165.603 30.5869L166.615 27.9759ZM165.116 15.9828L168.052 25.7771L168.564 29.5874L166.115 29.8498L161.255 15.9828H165.116Z" fill="#E1E1E6"/>
</svg>
